<svg width="18" height="13" viewBox="0 0 18 13" fill="none" xmlns="http://www.w3.org/2000/svg">
<path d="M16.7861 2.38944C16.5913 1.64568 16.0173 1.06003 15.2885 0.861244C13.9673 0.5 8.67 0.5 8.67 0.5C8.67 0.5 3.3727 0.5 2.05151 0.861244C1.32276 1.06003 0.74868 1.64568 0.553903 2.38944C0.199982 3.73746 0.199982 6.5501 0.199982 6.5501C0.199982 6.5501 0.199982 9.36268 0.553903 10.7106C0.74868 11.4543 1.32276 12.0401 2.05151 12.2389C3.3727 12.6 8.67 12.6 8.67 12.6C8.67 12.6 13.9673 12.6 15.2885 12.2389C16.0173 12.0401 16.5913 11.4543 16.7861 10.7106C17.14 9.36268 17.14 6.5501 17.14 6.5501C17.14 6.5501 17.14 3.73746 16.7861 2.38944V2.38944ZM6.97589 9.14299V3.95718L11.377 6.5501L6.97589 9.14299Z" fill="#AC8F78"/>
</svg>
